<svg width="568.2px" height="107.6px" xmlns="http://www.w3.org/2000/svg" viewBox="-34.09687500000001 21.200000000000003 568.19375 107.6" style="background: rgba(0, 0, 0, 0)" preserveAspectRatio="xMidYMid"><defs><linearGradient id="editing-outline-gradient" x1="-0.41354545764260087" x2="1.4135454576426008" y1="0.09326335692419985" y2="0.9067366430758002"><stop offset="0" stop-color="#0a0a0a"></stop><stop offset="1" stop-color="#0a0a0a"></stop></linearGradient><filter id="editing-outline" x="-100%" y="-100%" width="300%" height="300%"><feMorphology in="SourceGraphic" operator="dilate" radius="2" result="outline"></feMorphology><feComposite operator="out" in="outline" in2="SourceAlpha"></feComposite></filter></defs><g filter="url(#editing-outline)"><g transform="matrix(1.4,0,0,1.5,-6.7,164.2)"><path d="M -1.9 -47.6 L -13.9 -47.6 L -6.9 -83.9 L 5.2 -83.9 L -1.9 -47.6 Z M 46 -46.5 L 46 -46.5 L 46 -46.5 Q 39.4 -46.5 39.4 -51.7 L 39.4 -51.7 L 39.4 -51.7 Q 39.4 -53.9 40.3 -58.3 L 40.3 -58.3 L 40.3 -58.3 Q 41.3 -62.7 41.6 -64.4 L 41.6 -64.4 L 41.6 -64.4 Q 42.4 -68.5 42.4 -69.7 L 42.4 -69.7 L 42.4 -69.7 Q 42.4 -72.5 40.3 -72.5 L 40.3 -72.5 L 40.3 -72.5 Q 38.9 -72.5 37.6 -70.6 L 37.6 -70.6 L 37.6 -70.6 Q 36.3 -68.7 35.7 -64.9 L 35.7 -64.9 L 32.3 -47.6 L 21.5 -46.5 L 24.5 -61.5 L 24.5 -61.5 Q 25 -64 25.5 -66.8 L 25.5 -66.8 L 25.5 -66.8 Q 25.9 -69.6 25.9 -70 L 25.9 -70 L 25.9 -70 Q 25.9 -72.5 24 -72.5 L 24 -72.5 L 24 -72.5 Q 22.8 -72.5 21.4 -70.7 L 21.4 -70.7 L 21.4 -70.7 Q 20 -68.8 19.2 -64.9 L 19.2 -64.9 L 15.9 -47.6 L 5 -46.5 L 10.8 -75.7 L 19.8 -76.8 L 18.8 -71.2 L 18.8 -71.2 Q 20.3 -74.2 22.9 -75.5 L 22.9 -75.5 L 22.9 -75.5 Q 25.6 -76.8 29.7 -76.8 L 29.7 -76.8 L 29.7 -76.8 Q 32.1 -76.8 33.6 -75.6 L 33.6 -75.6 L 33.6 -75.6 Q 35.1 -74.5 35.6 -72.6 L 35.6 -72.6 L 35.6 -72.6 Q 36.6 -74.5 39 -75.6 L 39 -75.6 L 39 -75.6 Q 41.3 -76.8 44.3 -76.8 L 44.3 -76.8 L 44.3 -76.8 Q 47.2 -76.8 48.7 -76.1 L 48.7 -76.1 L 48.7 -76.1 Q 50.1 -75.5 51 -74.5 L 51 -74.5 L 51 -74.5 Q 52.5 -72.5 52.5 -69 L 52.5 -69 L 52.5 -69 Q 52.5 -65.5 51 -58.3 L 51 -58.3 L 51 -58.3 Q 50.3 -54.8 50.3 -53.5 L 50.3 -53.5 L 50.3 -53.5 Q 50.3 -52.2 51 -51.5 L 51 -51.5 L 51 -51.5 Q 51.7 -50.7 52.8 -50.6 L 52.8 -50.6 L 52.8 -50.6 Q 52.3 -48.7 50.4 -47.6 L 50.4 -47.6 L 50.4 -47.6 Q 48.5 -46.5 46 -46.5 Z M 59.5 -49.3 L 59.5 -49.3 L 59.5 -49.3 Q 58.2 -50.7 57.6 -52.9 L 57.6 -52.9 L 57.6 -52.9 Q 57 -55.2 57 -58.9 L 57 -58.9 L 57 -58.9 Q 57 -62.6 58.3 -65.9 L 58.3 -65.9 L 58.3 -65.9 Q 59.5 -69.3 61.9 -71.7 L 61.9 -71.7 L 61.9 -71.7 Q 66.6 -76.8 74.4 -76.8 L 74.4 -76.8 L 74.4 -76.8 Q 77.2 -76.8 79.2 -75.8 L 79.2 -75.8 L 88.6 -76.8 L 84.6 -55.3 L 84.6 -55.3 Q 84.4 -54.7 84.4 -53.4 L 84.4 -53.4 L 84.4 -53.4 Q 84.4 -52.2 85.2 -51.5 L 85.2 -51.5 L 85.2 -51.5 Q 85.9 -50.7 87 -50.6 L 87 -50.6 L 87 -50.6 Q 86.4 -48.7 84.4 -47.6 L 84.4 -47.6 L 84.4 -47.6 Q 82.4 -46.5 80.2 -46.5 L 80.2 -46.5 L 80.2 -46.5 Q 77.9 -46.5 76.4 -47.4 L 76.4 -47.4 L 76.4 -47.4 Q 74.9 -48.2 74.5 -49.7 L 74.5 -49.7 L 74.5 -49.7 Q 73.6 -48.3 71.7 -47.4 L 71.7 -47.4 L 71.7 -47.4 Q 69.8 -46.5 67.3 -46.5 L 67.3 -46.5 L 67.3 -46.5 Q 64.8 -46.5 62.8 -47.2 L 62.8 -47.2 L 62.8 -47.2 Q 60.8 -47.8 59.5 -49.3 Z M 71.1 -71.6 L 71.1 -71.6 L 71.1 -71.6 Q 70.4 -70.6 69.9 -68.9 L 69.9 -68.9 L 69.9 -68.9 Q 69.3 -67.3 68.4 -62.8 L 68.4 -62.8 L 68.4 -62.8 Q 67.5 -58.3 67.5 -55.1 L 67.5 -55.1 L 67.5 -55.1 Q 67.5 -51.9 68 -51 L 68 -51 L 68 -51 Q 68.5 -50 69.4 -50 L 69.4 -50 L 69.4 -50 Q 71.2 -50 72.4 -51.7 L 72.4 -51.7 L 72.4 -51.7 Q 73.7 -53.4 74.2 -56.4 L 74.2 -56.4 L 77.2 -72.5 L 77.2 -72.5 Q 76 -73.5 74.6 -73.5 L 74.6 -73.5 L 74.6 -73.5 Q 73.3 -73.5 72.5 -73 L 72.5 -73 L 72.5 -73 Q 71.7 -72.6 71.1 -71.6 Z M 95.3 -70.6 L 95.3 -70.6 L 95.3 -70.6 Q 97.2 -73.2 100 -75 L 100 -75 L 100 -75 Q 102.8 -76.8 106.3 -76.8 L 106.3 -76.8 L 106.3 -76.8 Q 109.8 -76.8 111.4 -75.7 L 111.4 -75.7 L 122.2 -76.8 L 118.5 -55.6 L 118.5 -55.6 Q 116.5 -44.9 112.5 -40.6 L 112.5 -40.6 L 112.5 -40.6 Q 108.6 -36.6 101 -36.6 L 101 -36.6 L 101 -36.6 Q 95.2 -36.6 91.9 -38.4 L 91.9 -38.4 L 91.9 -38.4 Q 88.6 -40.2 88.6 -43.3 L 88.6 -43.3 L 88.6 -43.3 Q 88.6 -45.5 90.3 -46.8 L 90.3 -46.8 L 90.3 -46.8 Q 92 -48.1 94.6 -48.1 L 94.6 -48.1 L 94.6 -48.1 Q 96.9 -48.1 98.7 -47.1 L 98.7 -47.1 L 98.7 -47.1 Q 99.8 -46.5 100.2 -45.7 L 100.2 -45.7 L 100.2 -45.7 Q 99 -44.6 99 -42.8 L 99 -42.8 L 99 -42.8 Q 99 -40.5 101.2 -40.5 L 101.2 -40.5 L 101.2 -40.5 Q 104.9 -40.5 107 -49.2 L 107 -49.2 L 107 -49.2 Q 107.6 -51.5 108.1 -53.9 L 108.1 -53.9 L 108.1 -53.9 Q 105.6 -50.9 100 -50.9 L 100 -50.9 L 100 -50.9 Q 96.1 -50.9 93.8 -52.7 L 93.8 -52.7 L 93.8 -52.7 Q 91.6 -54.6 91.6 -59 L 91.6 -59 L 91.6 -59 Q 91.6 -61.7 92.5 -64.9 L 92.5 -64.9 L 92.5 -64.9 Q 93.4 -68 95.3 -70.6 Z M 102.4 -58.8 L 102.4 -58.8 L 102.4 -58.8 Q 102.4 -55.1 104.4 -55.1 L 104.4 -55.1 L 104.4 -55.1 Q 105.7 -55.1 107 -56.5 L 107 -56.5 L 107 -56.5 Q 107.9 -57.7 108.3 -59.4 L 108.3 -59.4 L 111.1 -73.5 L 111.1 -73.5 Q 110.9 -73.6 110.6 -73.7 L 110.6 -73.7 L 110.6 -73.7 Q 110 -73.9 109.3 -73.9 L 109.3 -73.9 L 109.3 -73.9 Q 106 -73.9 104 -68.4 L 104 -68.4 L 104 -68.4 Q 102.4 -64.1 102.4 -58.8 Z M 146.6 -56.9 L 146.6 -56.9 L 146.6 -56.9 Q 148 -56 148 -53.9 L 148 -53.9 L 148 -53.9 Q 148 -51.9 146.9 -50.5 L 146.9 -50.5 L 146.9 -50.5 Q 145.9 -49.2 144.2 -48.3 L 144.2 -48.3 L 144.2 -48.3 Q 140.7 -46.5 136.9 -46.5 L 136.9 -46.5 L 136.9 -46.5 Q 133.1 -46.5 130.9 -47.3 L 130.9 -47.3 L 130.9 -47.3 Q 128.6 -48.2 127.1 -49.7 L 127.1 -49.7 L 127.1 -49.7 Q 124.2 -52.6 124.2 -58 L 124.2 -58 L 124.2 -58 Q 124.2 -66.3 128.7 -71.3 L 128.7 -71.3 L 128.7 -71.3 Q 133.6 -76.8 142 -76.8 L 142 -76.8 L 142 -76.8 Q 147.2 -76.8 149.8 -74.6 L 149.8 -74.6 L 149.8 -74.6 Q 151.7 -72.9 151.7 -70.2 L 151.7 -70.2 L 151.7 -70.2 Q 151.7 -60.5 135 -60.5 L 135 -60.5 L 135 -60.5 Q 134.8 -59.1 134.8 -57.9 L 134.8 -57.9 L 134.8 -57.9 Q 134.8 -55.4 135.9 -54.4 L 135.9 -54.4 L 135.9 -54.4 Q 137 -53.4 139.1 -53.4 L 139.1 -53.4 L 139.1 -53.4 Q 141.2 -53.4 143.5 -54.4 L 143.5 -54.4 L 143.5 -54.4 Q 145.7 -55.4 146.6 -56.9 Z M 135.4 -62.9 L 135.4 -62.9 L 135.4 -62.9 Q 139.3 -62.9 141.6 -65.3 L 141.6 -65.3 L 141.6 -65.3 Q 143.8 -67.6 143.8 -71.3 L 143.8 -71.3 L 143.8 -71.3 Q 143.8 -72.6 143.3 -73.3 L 143.3 -73.3 L 143.3 -73.3 Q 142.9 -74 141.9 -74 L 141.9 -74 L 141.9 -74 Q 141 -74 140.2 -73.6 L 140.2 -73.6 L 140.2 -73.6 Q 139.4 -73.2 138.6 -72 L 138.6 -72 L 138.6 -72 Q 136.5 -69.3 135.4 -62.9 Z M 170 -66.9 L 170 -66.9 L 170 -66.9 Q 170.8 -69 170.8 -70.7 L 170.8 -70.7 L 170.8 -70.7 Q 170.8 -74 168.2 -74 L 168.2 -74 L 168.2 -74 Q 166.8 -74 165.7 -72.7 L 165.7 -72.7 L 165.7 -72.7 Q 164.5 -71.5 164.5 -69.9 L 164.5 -69.9 L 164.5 -69.9 Q 164.5 -68.8 165.4 -68 L 165.4 -68 L 165.4 -68 Q 166.7 -66.8 169.9 -64.8 L 169.9 -64.8 L 169.9 -64.8 Q 173.2 -62.8 174.4 -61.2 L 174.4 -61.2 L 174.4 -61.2 Q 175.7 -59.6 175.7 -57.3 L 175.7 -57.3 L 175.7 -57.3 Q 175.7 -55.1 174.6 -53.1 L 174.6 -53.1 L 174.6 -53.1 Q 173.5 -51 171.6 -49.6 L 171.6 -49.6 L 171.6 -49.6 Q 167.5 -46.5 160.9 -46.5 L 160.9 -46.5 L 160.9 -46.5 Q 157.3 -46.5 154.5 -48.4 L 154.5 -48.4 L 154.5 -48.4 Q 151.8 -50.2 151.8 -52.3 L 151.8 -52.3 L 151.8 -52.3 Q 151.8 -54.5 153.4 -55.8 L 153.4 -55.8 L 153.4 -55.8 Q 154.9 -57 157.2 -57 L 157.2 -57 L 157.2 -57 Q 159.5 -57 161 -56.1 L 161 -56.1 L 161 -56.1 Q 160.3 -54.3 160.3 -53.1 L 160.3 -53.1 L 160.3 -53.1 Q 160.3 -49.5 163.3 -49.5 L 163.3 -49.5 L 163.3 -49.5 Q 164.7 -49.5 165.5 -50.3 L 165.5 -50.3 L 165.5 -50.3 Q 166.4 -51.1 166.4 -52.6 L 166.4 -52.6 L 166.4 -52.6 Q 166.4 -55.4 161.7 -58.3 L 161.7 -58.3 L 161.7 -58.3 Q 157.8 -60.9 157 -61.9 L 157 -61.9 L 157 -61.9 Q 155.5 -63.6 155.5 -65.8 L 155.5 -65.8 L 155.5 -65.8 Q 155.5 -68 156.5 -70.1 L 156.5 -70.1 L 156.5 -70.1 Q 157.6 -72.2 159.5 -73.7 L 159.5 -73.7 L 159.5 -73.7 Q 163.5 -76.8 170.5 -76.8 L 170.5 -76.8 L 170.5 -76.8 Q 174.1 -76.8 176.2 -75.3 L 176.2 -75.3 L 176.2 -75.3 Q 178.3 -73.9 178.3 -71.5 L 178.3 -71.5 L 178.3 -71.5 Q 178.3 -69.1 176.8 -67.7 L 176.8 -67.7 L 176.8 -67.7 Q 175.4 -66.3 172.7 -66.3 L 172.7 -66.3 L 172.7 -66.3 Q 170.9 -66.3 170 -66.9 Z M 213.9 -65.3 L 225 -66.3 L 225 -66.3 Q 221.1 -57.6 221.1 -47.6 L 221.1 -47.6 L 221.1 -47.6 Q 219.6 -46.5 217.4 -46.5 L 217.4 -46.5 L 217.4 -46.5 Q 215.3 -46.5 213.9 -47.5 L 213.9 -47.5 L 213.9 -47.5 Q 212.5 -48.6 212.2 -49.6 L 212.2 -49.6 L 212.2 -49.6 Q 210.9 -48.2 208.6 -47.3 L 208.6 -47.3 L 208.6 -47.3 Q 206.4 -46.5 204 -46.5 L 204 -46.5 L 204 -46.5 Q 201.7 -46.5 199.6 -47.3 L 199.6 -47.3 L 199.6 -47.3 Q 197.5 -48.1 195.9 -49.8 L 195.9 -49.8 L 195.9 -49.8 Q 192.4 -53.5 192.4 -60.6 L 192.4 -60.6 L 192.4 -60.6 Q 192.4 -71.6 198.3 -78.2 L 198.3 -78.2 L 198.3 -78.2 Q 204.4 -85 215.1 -85 L 215.1 -85 L 215.1 -85 Q 222.5 -85 225.2 -81.2 L 225.2 -81.2 L 225.2 -81.2 Q 226 -80 226 -78.5 L 226 -78.5 L 226 -78.5 Q 226 -77 225.3 -75.8 L 225.3 -75.8 L 225.3 -75.8 Q 224.7 -74.6 223.7 -73.6 L 223.7 -73.6 L 223.7 -73.6 Q 221.4 -71.4 218.4 -71.4 L 218.4 -71.4 L 218.4 -71.4 Q 217.3 -71.4 216.2 -71.8 L 216.2 -71.8 L 216.2 -71.8 Q 216.4 -73.4 216.4 -75.3 L 216.4 -75.3 L 216.4 -75.3 Q 216.4 -77.3 216.3 -78.1 L 216.3 -78.1 L 216.3 -78.1 Q 216.1 -79 215.8 -79.7 L 215.8 -79.7 L 215.8 -79.7 Q 215.1 -81.2 213.5 -81.2 L 213.5 -81.2 L 213.5 -81.2 Q 212 -81.2 210.2 -79.5 L 210.2 -79.5 L 210.2 -79.5 Q 208.5 -77.9 207.1 -75.1 L 207.1 -75.1 L 207.1 -75.1 Q 204.1 -69 204.1 -61.5 L 204.1 -61.5 L 204.1 -61.5 Q 204.1 -58.1 205.4 -55.7 L 205.4 -55.7 L 205.4 -55.7 Q 206.8 -53.1 209.4 -53.1 L 209.4 -53.1 L 209.4 -53.1 Q 210.2 -53.1 211 -53.5 L 211 -53.5 L 211 -53.5 Q 211.8 -53.9 212.2 -54.3 L 212.2 -54.3 L 213.9 -65.3 Z M 230.1 -49.3 L 230.1 -49.3 L 230.1 -49.3 Q 228.8 -50.7 228.3 -52.9 L 228.3 -52.9 L 228.3 -52.9 Q 227.7 -55.2 227.7 -58.9 L 227.7 -58.9 L 227.7 -58.9 Q 227.7 -62.6 229 -65.9 L 229 -65.9 L 229 -65.9 Q 230.2 -69.3 232.5 -71.7 L 232.5 -71.7 L 232.5 -71.7 Q 237.3 -76.8 245.1 -76.8 L 245.1 -76.8 L 245.1 -76.8 Q 247.9 -76.8 249.9 -75.8 L 249.9 -75.8 L 259.3 -76.8 L 255.2 -55.3 L 255.2 -55.3 Q 255.1 -54.7 255.1 -53.4 L 255.1 -53.4 L 255.1 -53.4 Q 255.1 -52.2 255.8 -51.5 L 255.8 -51.5 L 255.8 -51.5 Q 256.6 -50.7 257.7 -50.6 L 257.7 -50.6 L 257.7 -50.6 Q 257.1 -48.7 255.1 -47.6 L 255.1 -47.6 L 255.1 -47.6 Q 253.1 -46.5 250.8 -46.5 L 250.8 -46.5 L 250.8 -46.5 Q 248.6 -46.5 247.1 -47.4 L 247.1 -47.4 L 247.1 -47.4 Q 245.6 -48.2 245.1 -49.7 L 245.1 -49.7 L 245.1 -49.7 Q 244.2 -48.3 242.4 -47.4 L 242.4 -47.4 L 242.4 -47.4 Q 240.5 -46.5 238 -46.5 L 238 -46.5 L 238 -46.5 Q 235.5 -46.5 233.5 -47.2 L 233.5 -47.2 L 233.5 -47.2 Q 231.4 -47.8 230.1 -49.3 Z M 241.7 -71.6 L 241.7 -71.6 L 241.7 -71.6 Q 241.1 -70.6 240.6 -68.9 L 240.6 -68.9 L 240.6 -68.9 Q 240 -67.3 239.1 -62.8 L 239.1 -62.8 L 239.1 -62.8 Q 238.2 -58.3 238.2 -55.1 L 238.2 -55.1 L 238.2 -55.1 Q 238.2 -51.9 238.7 -51 L 238.7 -51 L 238.7 -51 Q 239.2 -50 240.1 -50 L 240.1 -50 L 240.1 -50 Q 241.8 -50 243.1 -51.7 L 243.1 -51.7 L 243.1 -51.7 Q 244.4 -53.4 244.9 -56.4 L 244.9 -56.4 L 247.8 -72.5 L 247.8 -72.5 Q 246.7 -73.5 245.3 -73.5 L 245.3 -73.5 L 245.3 -73.5 Q 244 -73.5 243.2 -73 L 243.2 -73 L 243.2 -73 Q 242.4 -72.6 241.7 -71.6 Z M 275.4 -50.6 L 275.4 -50.6 L 275.4 -50.6 Q 273.7 -46.5 268.3 -46.5 L 268.3 -46.5 L 268.3 -46.5 Q 265.5 -46.5 263.8 -48.4 L 263.8 -48.4 L 263.8 -48.4 Q 262.3 -50 262.3 -51.9 L 262.3 -51.9 L 262.3 -51.9 Q 262.3 -56 264.3 -65 L 264.3 -65 L 268.3 -86.1 L 279.4 -87.2 L 274.1 -59.4 L 274.1 -59.4 Q 273.2 -55.3 273.2 -53.9 L 273.2 -53.9 L 273.2 -53.9 Q 273.2 -50.8 275.4 -50.6 Z M 293.2 -50.6 L 293.2 -50.6 L 293.2 -50.6 Q 291.5 -46.5 286.1 -46.5 L 286.1 -46.5 L 286.1 -46.5 Q 283.3 -46.5 281.6 -48.4 L 281.6 -48.4 L 281.6 -48.4 Q 280.2 -50 280.2 -51.9 L 280.2 -51.9 L 280.2 -51.9 Q 280.2 -56 282.1 -65 L 282.1 -65 L 286.1 -86.1 L 297.3 -87.2 L 291.9 -59.4 L 291.9 -59.4 Q 291 -55.3 291 -53.9 L 291 -53.9 L 291 -53.9 Q 291 -50.8 293.2 -50.6 Z M 320.2 -56.9 L 320.2 -56.9 L 320.2 -56.9 Q 321.6 -56 321.6 -53.9 L 321.6 -53.9 L 321.6 -53.9 Q 321.6 -51.9 320.5 -50.5 L 320.5 -50.5 L 320.5 -50.5 Q 319.5 -49.2 317.8 -48.3 L 317.8 -48.3 L 317.8 -48.3 Q 314.3 -46.5 310.5 -46.5 L 310.5 -46.5 L 310.5 -46.5 Q 306.7 -46.5 304.4 -47.3 L 304.4 -47.3 L 304.4 -47.3 Q 302.2 -48.2 300.7 -49.7 L 300.7 -49.7 L 300.7 -49.7 Q 297.8 -52.6 297.8 -58 L 297.8 -58 L 297.8 -58 Q 297.8 -66.3 302.3 -71.3 L 302.3 -71.3 L 302.3 -71.3 Q 307.2 -76.8 315.6 -76.8 L 315.6 -76.8 L 315.6 -76.8 Q 320.8 -76.8 323.4 -74.6 L 323.4 -74.6 L 323.4 -74.6 Q 325.3 -72.9 325.3 -70.2 L 325.3 -70.2 L 325.3 -70.2 Q 325.3 -60.5 308.6 -60.5 L 308.6 -60.5 L 308.6 -60.5 Q 308.4 -59.1 308.4 -57.9 L 308.4 -57.9 L 308.4 -57.9 Q 308.4 -55.4 309.5 -54.4 L 309.5 -54.4 L 309.5 -54.4 Q 310.6 -53.4 312.7 -53.4 L 312.7 -53.4 L 312.7 -53.4 Q 314.8 -53.4 317 -54.4 L 317 -54.4 L 317 -54.4 Q 319.3 -55.4 320.2 -56.9 Z M 309 -62.9 L 309 -62.9 L 309 -62.9 Q 312.9 -62.9 315.1 -65.3 L 315.1 -65.3 L 315.1 -65.3 Q 317.4 -67.6 317.4 -71.3 L 317.4 -71.3 L 317.4 -71.3 Q 317.4 -72.6 316.9 -73.3 L 316.9 -73.3 L 316.9 -73.3 Q 316.5 -74 315.5 -74 L 315.5 -74 L 315.5 -74 Q 314.6 -74 313.8 -73.6 L 313.8 -73.6 L 313.8 -73.6 Q 313 -73.2 312.2 -72 L 312.2 -72 L 312.2 -72 Q 310.1 -69.3 309 -62.9 Z M 344.4 -63.1 L 344.4 -63.1 L 344.4 -63.1 Q 346.4 -66.6 346.4 -70.2 L 346.4 -70.2 L 346.4 -70.2 Q 346.4 -72.5 344.7 -72.5 L 344.7 -72.5 L 344.7 -72.5 Q 343.4 -72.5 342 -70.3 L 342 -70.3 L 342 -70.3 Q 340.5 -68 340.1 -65.1 L 340.1 -65.1 L 337.2 -47.6 L 325.9 -46.5 L 331.5 -75.7 L 340.5 -76.8 L 339.6 -71.2 L 339.6 -71.2 Q 342.2 -76.8 348.3 -76.8 L 348.3 -76.8 L 348.3 -76.8 Q 351.5 -76.8 353.2 -75.1 L 353.2 -75.1 L 353.2 -75.1 Q 355 -73.5 355 -70.1 L 355 -70.1 L 355 -70.1 Q 355 -66.7 352.7 -64.6 L 352.7 -64.6 L 352.7 -64.6 Q 350.5 -62.4 346.7 -62.4 L 346.7 -62.4 L 346.7 -62.4 Q 345.1 -62.4 344.4 -63.1 Z M 373.3 -53.8 L 373.3 -53.8 L 373.3 -53.8 Q 370.5 -50.9 365.2 -50.9 L 365.2 -50.9 L 365.2 -50.9 Q 358.7 -50.9 357.3 -55.6 L 357.3 -55.6 L 357.3 -55.6 Q 356.9 -57.1 356.9 -58.7 L 356.9 -58.7 L 356.9 -58.7 Q 356.9 -60.3 357.2 -61.9 L 357.2 -61.9 L 359.8 -75.7 L 371 -76.8 L 367.9 -60.8 L 367.9 -60.8 Q 367.8 -60 367.7 -59.3 L 367.7 -59.3 L 367.7 -59.3 Q 367.5 -58.5 367.5 -57.7 L 367.5 -57.7 L 367.5 -57.7 Q 367.5 -56.9 367.8 -56.4 L 367.8 -56.4 L 367.8 -56.4 Q 368 -55.9 368.4 -55.5 L 368.4 -55.5 L 368.4 -55.5 Q 369.1 -55.1 370.3 -55.1 L 370.3 -55.1 L 370.3 -55.1 Q 371.5 -55.1 372.5 -56.5 L 372.5 -56.5 L 372.5 -56.5 Q 373.5 -58 374 -60.4 L 374 -60.4 L 377 -75.7 L 387.8 -76.8 L 383.7 -55.2 L 383.7 -55.2 Q 381.7 -44.6 377.5 -40.4 L 377.5 -40.4 L 377.5 -40.4 Q 375.4 -38.3 372.6 -37.4 L 372.6 -37.4 L 372.6 -37.4 Q 369.8 -36.6 366.2 -36.6 L 366.2 -36.6 L 366.2 -36.6 Q 360.5 -36.6 357.2 -38.4 L 357.2 -38.4 L 357.2 -38.4 Q 353.9 -40.2 353.9 -43.2 L 353.9 -43.2 L 353.9 -43.2 Q 353.9 -45.5 355.6 -46.8 L 355.6 -46.8 L 355.6 -46.8 Q 357.3 -48.1 359.9 -48.1 L 359.9 -48.1 L 359.9 -48.1 Q 362.2 -48.1 364 -47.1 L 364 -47.1 L 364 -47.1 Q 365 -46.5 365.5 -45.7 L 365.5 -45.7 L 365.5 -45.7 Q 364.3 -44.6 364.3 -42.8 L 364.3 -42.8 L 364.3 -42.8 Q 364.3 -40.4 366.5 -40.4 L 366.5 -40.4 L 366.5 -40.4 Q 370.1 -40.4 372.2 -48.7 L 372.2 -48.7 L 372.2 -48.7 Q 372.8 -51.2 373.3 -53.8 Z" fill="url(#editing-outline-gradient)"></path></g></g><style>text {
  font-size: 64px;
  font-family: Arial Black;
  dominant-baseline: central;
  text-anchor: middle;
}</style></svg>